<svg width="22" height="14" viewBox="0 0 22 14" fill="none" xmlns="http://www.w3.org/2000/svg">
<path d="M0 11.368H4.9V10.332H1.134C1.134 7.84 4.816 6.44 4.816 3.71C4.816 2.478 3.948 1.414 2.422 1.414C1.036 1.414 0.154 2.394 0.07 3.962H1.148C1.176 2.968 1.652 2.45 2.422 2.45C3.248 2.45 3.71 3.024 3.71 3.738C3.71 5.95 0 7.266 0 10.542V11.368Z" fill="#E9B45B"/>
<path d="M10.7914 7.812H9.64338V4.284H8.63538L8.57938 7.812H6.32538L8.35538 1.568H7.22137L5.07937 8.246V8.848H8.56538V11.368H9.64338V8.848H10.7914V7.812Z" fill="#E9B45B"/>
<path d="M15.4803 0L10.9443 13.006H11.9663L16.5163 0H15.4803Z" fill="#E9B45B"/>
<path d="M16.6008 1.554V2.604H20.0448L17.4688 11.396H18.6308L21.3048 2.254V1.554H16.6008Z" fill="#E9B45B"/>
</svg>
