<svg width="20" height="19" viewBox="0 0 20 19" fill="none" xmlns="http://www.w3.org/2000/svg">
<path d="M10.8257 5.51771C10.5892 5.16994 10.3805 4.84999 10.1858 4.55786C10.158 4.51612 10.1162 4.47439 10.0745 4.44657C9.90757 4.33528 9.68499 4.39093 9.57371 4.55786C9.39287 4.84999 9.1842 5.15602 8.93381 5.51771C7.83485 7.13137 6.19336 9.56577 6.19336 10.9569C6.19336 11.9724 6.61069 12.8905 7.27841 13.5582C7.94613 14.212 8.86425 14.6293 9.87975 14.6293C10.8952 14.6293 11.8134 14.212 12.4811 13.5443C13.1488 12.8766 13.5661 11.9584 13.5661 10.9429C13.5661 9.55186 11.9246 7.13137 10.8257 5.51771ZM11.9803 13.0435C11.4378 13.586 10.7005 13.906 9.87975 13.906C9.059 13.906 8.32173 13.5721 7.7792 13.0435C7.23668 12.501 6.91673 11.7637 6.91673 10.9429C6.91673 9.77444 8.48866 7.45132 9.53197 5.90721C9.65717 5.72637 9.76846 5.54553 9.87975 5.39251C9.99103 5.54553 10.1023 5.72637 10.2275 5.90721C11.2708 7.46523 12.8428 9.77444 12.8428 10.9429C12.8428 11.7637 12.5089 12.501 11.9803 13.0435Z" fill="#E9B45B"/>
<path d="M12.0359 10.6928C11.8412 10.6789 11.6742 10.8319 11.6603 11.0266C11.6464 11.3327 11.549 11.6248 11.396 11.8752C11.243 12.1256 11.0204 12.3482 10.7561 12.4873C10.5892 12.5847 10.5196 12.8072 10.617 12.9742C10.7283 13.1689 10.9509 13.2246 11.1178 13.1272C11.4934 12.9185 11.7994 12.6125 12.0081 12.2647C12.2307 11.9169 12.3559 11.4996 12.3698 11.0684C12.3837 10.8736 12.2307 10.7067 12.0359 10.6928Z" fill="#E9B45B"/>
<path fill-rule="evenodd" clip-rule="evenodd" d="M9.90632 17.9212C14.6531 17.9212 18.5012 14.0731 18.5012 9.32631C18.5012 4.57952 14.6531 0.731476 9.90632 0.731476C5.15952 0.731476 1.31148 4.57952 1.31148 9.32631C1.31148 14.0731 5.15952 17.9212 9.90632 17.9212ZM9.90632 18.6526C15.0571 18.6526 19.2326 14.4771 19.2326 9.32631C19.2326 4.17553 15.0571 0 9.90632 0C4.75554 0 0.580002 4.17553 0.580002 9.32631C0.580002 14.4771 4.75554 18.6526 9.90632 18.6526Z" fill="#E9B45B"/>
<path fill-rule="evenodd" clip-rule="evenodd" d="M15.7581 16.2753L2.95729 3.47451L3.47453 2.95728L16.2753 15.7581L15.7581 16.2753Z" fill="#E9B45B"/>
</svg>
