<svg width="22" height="19" viewBox="0 0 22 19" fill="none" xmlns="http://www.w3.org/2000/svg">
<path d="M21.4793 5.79215L5.90975 0.0239281C5.71061 -0.0496614 5.48936 0.0521697 5.41593 0.251475C5.41577 0.251636 5.41577 0.251797 5.41561 0.251959L3.69206 4.94345C3.6188 5.14275 3.72095 5.36385 3.92025 5.43711H3.92058L5.7253 6.09974L5.32765 7.18309C5.25455 7.38239 5.3567 7.60316 5.55601 7.67643L9.16609 9.00184L8.90078 9.72402C8.65968 10.3708 8.88464 11.099 9.44883 11.4968V13.4592H4.27465C4.02418 12.8866 3.51164 12.4709 2.89952 12.344V11.5365C2.89952 11.3241 2.72749 11.1519 2.51495 11.1519H0.964571C0.752195 11.1519 0.580002 11.3241 0.580002 11.5365V17.6891C0.580002 17.9017 0.752195 18.0737 0.964571 18.0737H2.51495C2.72749 18.0737 2.89952 17.9017 2.89952 17.6891V16.8817C3.51164 16.7547 4.02418 16.3392 4.27465 15.7664H9.44883V16.151C9.44883 16.7881 9.96524 17.3047 10.6024 17.3047C11.2395 17.3047 11.7561 16.7881 11.7561 16.151V11.891C12.1056 11.7177 12.3756 11.4171 12.5102 11.0507L12.7755 10.3286L16.0244 11.5207C16.0669 11.5363 16.1116 11.5442 16.1568 11.5442C16.318 11.5442 16.4623 11.4437 16.5179 11.2923L16.662 10.8997C17.9134 11.1351 19.1186 10.3116 19.3539 9.06043C19.4409 8.59807 19.3844 8.12022 19.192 7.69095L21.5232 6.49399C21.7121 6.39716 21.7868 6.16542 21.69 5.97645C21.6461 5.89059 21.5716 5.82443 21.4812 5.79102L21.4793 5.79215ZM10.2178 11.8471L10.5362 11.9625C10.6811 12.0145 10.8331 12.0443 10.9869 12.051V13.4592H10.2178V11.8471ZM2.13055 17.3047H1.34914V11.9211H2.13055V17.3047ZM3.66866 14.9975C3.66802 15.4861 3.3601 15.9217 2.89952 16.0853V13.1404C3.3601 13.3039 3.66802 13.7395 3.66866 14.2283V14.9975ZM4.44974 14.2283H10.9869V14.9975H4.44974V14.2283ZM10.6024 16.5356C10.39 16.5356 10.2178 16.3634 10.2178 16.151V15.7664H10.9869V16.151C10.9869 16.3634 10.8148 16.5356 10.6024 16.5356ZM12.0537 10.0637L11.7884 10.7859C11.6418 11.1842 11.2001 11.3885 10.8015 11.2423L10.0782 10.9773C9.6796 10.8309 9.47497 10.3891 9.62134 9.9903C9.62134 9.9903 9.62134 9.9903 9.62134 9.99014L9.88681 9.26845L11.836 9.98401L12.0537 10.0637ZM15.9287 10.6675L6.182 7.08836L6.44747 6.36618L12.223 8.48704C12.3596 8.53675 12.513 8.5056 12.6193 8.40619L13.6985 7.3903L16.724 8.50156L15.9287 10.6675ZM18.5287 9.16452C18.2851 9.8215 17.6297 10.232 16.9324 10.1644L17.5266 8.54578L18.4971 8.04599C18.649 8.40135 18.6603 8.80125 18.5287 9.16452ZM17.2308 7.8349C17.2104 7.83668 17.1902 7.84023 17.1704 7.84555L13.7419 6.58663C13.6052 6.53644 13.4519 6.56758 13.3457 6.66732L12.2652 7.68337L4.54657 4.84888L6.00448 0.879244L20.3925 6.2098L17.2308 7.8349Z" fill="#E9B45B"/>
<path d="M7.69946 5.1871L7.96445 4.46509L8.68646 4.73024L8.42131 5.45225L7.69946 5.1871Z" fill="#E9B45B"/>
<path d="M9.14334 5.71713L9.40832 4.99512L10.1303 5.26027L9.86519 5.98212L9.14334 5.71713Z" fill="#E9B45B"/>
<path d="M10.5872 6.24765L10.8524 5.52563L11.5742 5.79078L11.3091 6.5128L10.5872 6.24765Z" fill="#E9B45B"/>
</svg>
