<svg width="17" height="22" viewBox="0 0 17 22" fill="none" xmlns="http://www.w3.org/2000/svg">
<path d="M14.1015 2.09065C12.3394 0.512291 10.0637 -0.21008 7.69203 0.0529797C3.86722 0.474711 0.823238 3.56462 0.455789 7.40196C0.176027 10.3416 1.49133 13.2227 3.89645 14.9221C4.76914 15.5401 5.34119 16.4546 5.49986 17.4483H4.86518V18.1331H5.54997V18.8179H4.86518V19.4985H5.54997V20.1833H4.86518V20.8681H5.54997V21.2105H6.23476V20.8681H11.0241V21.2105H11.7089V20.8681H12.3937V20.1833H11.7089V19.4985H12.3937V18.8138H11.7089V18.129H12.3937V17.4442H11.7715C11.9427 16.4295 12.4856 15.5234 13.3123 14.9514C15.5212 13.4148 16.8407 10.8927 16.8407 8.20784C16.8365 5.87788 15.8427 3.64813 14.1015 2.09065ZM11.0199 20.1833H6.23059V19.4985H11.0199V20.1833ZM11.0199 18.8138H6.23059V18.129H11.0199V18.8138ZM12.9157 14.3918C11.9093 15.0933 11.2496 16.204 11.0742 17.4442H8.96975V14.0244H8.28496V17.4442H6.19301C6.03016 16.2291 5.34537 15.1059 4.28895 14.3584C2.05085 12.7801 0.873345 10.1996 1.13641 7.46459C1.47463 3.94877 4.2639 1.11775 7.76719 0.72942C9.94266 0.491413 12.0304 1.15115 13.6464 2.60007C15.2414 4.02811 16.1517 6.06996 16.1517 8.20784C16.1517 10.6756 14.945 12.9847 12.9157 14.3918Z" fill="#E9B45B"/>
<path d="M12.4772 6.49985H10.3393V2.87964L5.8005 7.86943H7.94256V11.4896L12.4772 6.49985ZM7.34963 7.18464L9.65454 4.65007V7.18464H10.9323L8.62735 9.7192V7.18464H7.34963Z" fill="#E9B45B"/>
</svg>
