<svg width="51" height="66" viewBox="0 0 51 66" fill="none" xmlns="http://www.w3.org/2000/svg">
<path d="M31.4362 62.4523C31.227 62.3733 31.0178 62.2944 30.882 62.1476C30.6728 62.0687 30.4012 61.775 30.3388 61.5603C30.2709 61.4869 30.2764 61.3455 30.1406 61.1987C30.1461 61.0574 30.0837 60.8427 30.0892 60.7014L30.0947 60.5601C30.1002 60.4187 30.0323 60.3453 30.1057 60.2774C30.0599 59.6388 30.0819 59.0735 30.104 58.5082C30.238 56.8859 30.3721 55.2635 30.5741 53.7146C30.6071 52.8667 30.7815 52.0243 30.8146 51.1765C30.8311 50.7525 30.8477 50.3286 30.9321 49.978C30.9431 49.6954 30.9597 49.2715 31.0441 48.9209C31.123 48.7117 31.1285 48.5704 31.2075 48.3612C31.2185 48.0786 31.4387 47.8749 31.659 47.6712C31.9526 47.3996 32.4555 47.2069 32.8794 47.2234C33.1621 47.2345 33.4447 47.2455 33.6484 47.4657C33.7163 47.5391 33.8521 47.686 33.9934 47.6915C34.1971 47.9117 34.3274 48.1999 34.4577 48.488C34.588 48.7761 34.6449 49.1322 34.5604 49.4827C34.5549 49.624 34.5439 49.9066 34.5384 50.048C34.5218 50.4719 34.5053 50.8958 34.4888 51.3198C34.2354 52.3714 34.1234 53.4285 33.938 54.5535C33.9325 54.6948 33.8536 54.904 33.7747 55.1132C33.8481 55.0453 33.9215 54.9774 33.927 54.8361C34.3785 54.1461 34.83 53.456 35.2815 52.766C35.5073 52.421 35.733 52.076 35.8175 51.7254C35.9698 51.4483 36.1955 51.1033 36.3479 50.8262C36.7315 50.0627 37.0417 49.3672 37.4253 48.6038C37.5831 48.1853 37.8144 47.699 37.9722 47.2806C38.0567 46.93 38.2824 46.585 38.3669 46.2345C38.3724 46.0932 38.5192 45.9574 38.5247 45.8161C38.7615 45.1884 38.9249 44.6287 39.0937 43.9276C39.2516 43.5092 39.415 42.9495 39.5728 42.531C39.8316 41.3381 40.2318 40.1507 40.4906 38.9578C40.4961 38.8165 40.5016 38.6752 40.575 38.6073C40.6595 38.2568 40.676 37.8328 40.8339 37.4144C40.9293 36.7813 41.0982 36.0802 41.1937 35.447C41.4635 33.9715 41.5921 32.4905 41.5793 31.0039C41.6399 29.4495 41.5593 27.8895 41.4107 26.2561C41.2969 25.544 41.2511 24.9054 41.1373 24.1933C41.0181 23.6225 40.9667 23.1252 40.8474 22.5544C40.7282 21.9836 40.5355 21.4808 40.4841 20.9834C40.3649 20.4126 40.1777 19.7685 40.0584 19.1977C40.0016 18.8417 39.8713 18.5535 39.741 18.2654C39.5538 17.6212 39.2987 16.9036 39.1116 16.2594C38.9813 15.9713 38.9923 15.6886 38.862 15.4005C38.4767 14.3948 38.1647 13.3211 37.7115 12.242C36.5499 9.3661 35.1681 6.69391 33.2834 4.2144C32.8815 3.63261 32.4741 3.19213 31.9988 2.67824C31.5914 2.23776 31.0427 1.79177 30.5619 1.41919C30.3582 1.19895 30.3747 0.775007 30.5949 0.571306C30.8152 0.367604 31.2391 0.384144 31.4428 0.604383C31.9915 1.05038 32.5403 1.49636 33.0156 2.01026C33.6322 2.52966 34.102 3.18487 34.5718 3.84007C35.5793 5.2239 36.4454 6.60221 37.2382 8.04843C37.6346 8.77153 37.9631 9.42123 38.3594 10.1443C38.5521 10.6472 38.8861 11.1556 39.0788 11.6584C39.3338 12.376 39.5944 12.9523 39.8495 13.6699C39.9798 13.9581 40.1101 14.2462 40.2348 14.6757C40.2972 14.8904 40.433 15.0372 40.4275 15.1785C40.6147 15.8227 40.8074 16.3256 40.9945 16.9698C41.1817 17.6139 41.3744 18.1168 41.5615 18.761C41.6239 18.9757 41.6918 19.0491 41.7542 19.2638C41.8111 19.6199 41.9414 19.908 41.9982 20.2641L42.5542 22.3379C42.679 22.7674 42.7983 23.3382 42.923 23.7676C43.1047 24.5531 43.2808 25.4799 43.3891 26.3333C43.6055 28.0401 43.7486 29.8148 43.7559 31.4427C43.7631 33.0705 43.6236 34.8342 43.4161 36.5244C43.3206 37.1576 43.2252 37.7908 43.0563 38.4918C42.9719 38.8423 42.8874 39.1929 42.9443 39.5489C42.9388 39.6902 42.9333 39.8315 42.8599 39.8994C42.601 41.0923 42.3422 42.2852 42.0155 43.4047C41.8521 43.9645 41.6888 44.5242 41.5988 45.016C41.4354 45.5758 41.2721 46.1355 41.1087 46.6953C41.1032 46.8366 40.9564 46.9724 40.9509 47.1137C40.793 47.5321 40.7086 47.8827 40.5507 48.3011C40.3874 48.8608 40.1506 49.4885 39.9193 49.9748C39.6825 50.6025 39.3044 51.2246 39.0677 51.8522C38.9887 52.0614 38.9098 52.2707 38.763 52.4065C38.6841 52.6157 38.5317 52.8928 38.4528 53.102C38.2215 53.5883 37.9903 54.0747 37.6911 54.4876C37.3185 54.9684 37.0139 55.5226 36.7092 56.0769C36.3366 56.5577 36.0374 56.9706 35.7383 57.3835C35.5859 57.6606 35.4391 57.7964 35.3602 58.0056C35.7217 57.8074 36.1512 57.6827 36.5127 57.4845C37.3772 57.0936 38.1682 56.7706 38.9647 56.3064C39.3262 56.1082 39.6144 55.9779 39.9759 55.7797C40.5522 55.5191 41.2019 55.1906 41.8461 55.0035C42.2755 54.8787 42.694 55.0366 42.9656 55.3302C43.1014 55.477 43.2372 55.6239 43.2261 55.9065C43.2885 56.1212 43.283 56.2625 43.2041 56.4717C43.182 57.037 42.8205 57.2352 42.5268 57.5068C42.4534 57.5747 42.38 57.6426 42.2332 57.7784C42.013 57.9821 41.7248 58.1124 41.4367 58.2427C41.0017 58.5088 40.5667 58.7749 40.1318 59.0409C39.0526 59.4942 38.1093 60.0943 37.0301 60.5475C35.8042 61.1366 34.6516 61.6577 33.4311 62.1055C33.0696 62.3037 32.7135 62.3606 32.3575 62.4174C32.0694 62.5477 31.7867 62.5367 31.4362 62.4523Z" fill="white"/>
</svg>
