<svg width="19" height="19" viewBox="0 0 19 19" fill="none" xmlns="http://www.w3.org/2000/svg">
<path d="M0 18.0228L1.26484 13.5171C0.442711 12.1188 0 10.5651 0 8.94923C0 4.0396 4.11078 0 9.13853 0C14.1663 0 18.3403 4.0396 18.3403 8.94923C18.3403 13.8589 14.1663 18.0228 9.13853 18.0228C7.55747 18.0228 6.03966 17.5256 4.67993 16.7798L0 18.0228Z" fill="white"/>
<path d="M4.93295 15.164L5.21755 15.3194C6.38754 16.0341 7.74726 16.4691 9.17021 16.4691C13.3126 16.4691 16.7593 13.0821 16.7593 8.94925C16.7593 4.81643 13.3126 1.55371 9.13858 1.55371C4.96458 1.55371 1.58112 4.84752 1.58112 8.94925C1.58112 10.3786 1.9922 11.777 2.7511 12.9578L2.94084 13.2374L2.21357 15.8476L4.93295 15.164Z" fill="#39D735"/>
<path d="M6.47624 4.78548L5.87546 4.75439C5.68571 4.75439 5.496 4.81656 5.36952 4.94085C5.08492 5.18944 4.61062 5.65553 4.48413 6.27704C4.26279 7.20926 4.61062 8.3279 5.43278 9.44654C6.25494 10.5652 7.83601 12.3675 10.6187 13.1443C11.504 13.3929 12.1997 13.2375 12.7689 12.8957C13.2116 12.6161 13.4962 12.181 13.5911 11.7149L13.6859 11.2799C13.7176 11.1556 13.6543 11.0002 13.5278 10.9381L11.5357 10.0369C11.4092 9.97477 11.2511 10.0058 11.1562 10.1301L10.3657 11.1245C10.3024 11.1867 10.2076 11.2177 10.1127 11.1867C9.57515 11.0002 7.77275 10.2544 6.79247 8.39003C6.76084 8.29682 6.76084 8.20357 6.8241 8.14144L7.58301 7.30247C7.64627 7.20926 7.67786 7.08496 7.64627 6.99172L6.72925 4.97194C6.69758 4.87869 6.60273 4.78548 6.47624 4.78548Z" fill="#FEFEFE"/>
</svg>
