<svg width="91" height="109" viewBox="0 0 91 109" fill="none" xmlns="http://www.w3.org/2000/svg">
<path d="M75.5002 46.0564C75.4231 62.7309 62.0544 76.1682 45.6539 76.0825C29.2534 75.9969 16.0217 62.3798 16.1073 45.7481C16.193 29.1164 29.5703 15.6277 45.9536 15.7134C62.337 15.799 75.5858 29.3818 75.5002 46.0564Z" fill="url(#paint0_linear)"/>
<path d="M22.873 51.88C22.873 35.8992 35.6166 22.9415 51.3405 22.9415C57.5332 22.9232 63.5572 24.9593 68.4689 28.7309C65.848 25.1499 62.4207 22.2364 58.4645 20.2263C54.5082 18.2162 50.1342 17.166 45.6966 17.1606C29.9385 17.1606 17.1949 30.1183 17.1949 46.1163C17.1831 50.5868 18.2042 54.9996 20.1785 59.0106C22.1528 63.0216 25.0269 66.5223 28.5768 69.2396C24.8621 64.215 22.8623 58.1286 22.873 51.88Z" fill="url(#paint1_linear)"/>
<path d="M32.2339 18.8478C46.793 11.5425 64.6323 17.7259 72.126 32.6448C79.6197 47.5636 73.9245 65.5913 59.391 72.8966C44.8575 80.2019 26.7356 73.9843 19.2334 59.0568C11.7311 44.1294 17.6918 26.1531 32.2339 18.8478Z" stroke="#4C4757" stroke-width="0.64" stroke-miterlimit="10" stroke-linecap="round"/>
<path d="M86.0943 31.8055C86.8737 32.8418 89.1004 40.9178 88.9291 46.7929C88.7071 54.5314 86.4323 62.0719 82.3375 68.6421C78.2428 75.2123 72.4754 80.5761 65.6259 84.1842C59.4754 87.2436 52.7115 88.8687 45.8425 88.9374C26.7443 89.023 1.9252 73.9928 2.8844 44.7803C3.56097 25.134 18.437 2.82418 45.7911 2.73854C68.6148 2.66146 82.249 21.9138 82.9256 24.1491C83.448 25.8619 80.716 27.3178 79.4228 25.4937C72.5714 15.8075 61.438 6.36977 45.6969 6.25844C26.2219 6.12141 7.94585 22.342 6.75542 42.0397C6.19875 51.2377 7.96298 57.6352 10.8663 63.6216C14.1618 70.1178 19.1807 75.5825 25.3738 79.4176C31.5668 83.2528 38.6954 85.3107 45.9795 85.3661C65.2662 85.2805 81.6324 72.1943 84.7326 51.7344C86.7452 38.477 79.4314 27.3264 74.0445 21.4771C67.51 14.4287 56.2052 8.27103 46.0652 8.33098C23.6184 8.43375 10.1383 25.6821 8.79371 41.5773C8.20278 48.5657 9.01638 55.8453 12.4421 62.5596C18.771 75.0377 32.6022 83.6618 46.1936 83.4734C67.1246 83.1737 78.5578 68.2634 82.2062 55.1344C83.9911 48.2617 83.4859 40.9944 80.7674 34.4347C79.7311 31.8654 76.2883 33.0987 77.2047 36.0105C80.0137 44.8745 79.8767 50.7924 76.8193 58.8599C74.4299 65.1631 66.0284 79.611 46.108 79.8079C41.5735 79.7755 37.091 78.8384 32.9233 77.0515C28.7556 75.2646 24.9864 72.6638 21.8367 69.4016C18.6869 66.1394 16.22 62.2813 14.5803 58.0535C12.9406 53.8257 12.1613 49.3132 12.2879 44.7803C12.3735 32.9445 20.0471 20.8005 30.9322 15.3708C35.4598 13.2081 40.4138 12.0857 45.4314 12.0857C50.449 12.0857 55.403 13.2081 59.9306 15.3708C64.5039 17.5803 70.3619 22.3506 74.9266 28.5425" stroke="#4C4757" stroke-width="0.64" stroke-miterlimit="10" stroke-linecap="round"/>
<path d="M79.0115 35.1198C79.0115 35.1198 83.8759 44.0352 79.0115 58.3117C75.8294 66.8369 69.6358 73.9018 61.6004 78.1722C44.806 86.6079 23.0614 79.3112 14.3259 61.9002C5.59042 44.4891 12.4418 23.1214 28.6282 14.6171C38.8025 9.29016 50.3556 7.57732 64.5294 15.9017C69.0513 18.5566 74.4895 23.6095 76.7762 27.5063C78.0694 29.733 74.8664 31.5914 73.2563 29.4932C72.0487 27.9259 62.2427 13.7949 46.0649 13.8121C26.136 13.8121 14.2488 30.0841 14.069 45.8851C13.872 63.1505 29.4846 77.9409 45.6967 77.8724C68.6402 77.7782 77.5984 57.3954 77.4356 47.0412C77.3024 42.9126 76.5489 38.8274 75.2004 34.9229C74.6694 33.2785 74.5152 32.4136 76.485 31.4972C77.9741 30.8553 79.4239 30.126 80.8271 29.3133C84.2528 27.4377 86.1026 27.1894 84.9122 24.1748C83.7218 21.1602 70.2845 1 46.1506 1C20.2352 1 1 21.477 1 47.4352C1 71.5692 22.4105 90.6674 45.9707 90.6674C77.4356 90.6674 90.2134 62.611 90.5988 48.7027C90.8986 37.869 88.4663 32.4307 87.8326 30.8035C86.7364 28.0629 83.3535 30.144 84.1757 32.268C85.7515 36.336 86.7449 38.6911 86.8991 46.3047C87.3787 65.2659 71.749 86.745 45.9707 87.1132C30.8891 87.3273 15.8932 78.3434 9.14457 64.4609C-1.41511 42.6906 7.85137 18.5995 27.3264 8.86195C42.4679 1.29118 58.4916 4.20302 71.8603 14.069C75.2089 16.5526 78.4976 20.9204 80.5445 23.8493" stroke="#4C4757" stroke-width="0.64" stroke-miterlimit="10" stroke-linecap="round"/>
<g style="mix-blend-mode:multiply">
<path d="M65.754 26.3329C64.8377 26.3329 55.2629 27.4292 46.2447 27.4292C37.2266 27.4292 27.6518 26.3329 26.744 26.3329C25.1254 30.3581 25.6221 36.9868 26.744 42.3309C26.9581 42.6392 27.001 42.8533 27.1037 42.8105C28.2941 41.1747 33.3984 35.2997 41.0548 33.5697V69.4367C41.0288 69.9556 40.8773 70.4605 40.6133 70.908C40.3493 71.3555 39.9806 71.7322 39.539 72.0059V72.4769H52.7878V71.9802C52.3353 71.721 51.9592 71.3469 51.6976 70.8958C51.4359 70.4447 51.298 69.9325 51.2976 69.411V33.5697C58.5601 34.272 64.2125 41.1747 65.4029 42.8105C65.5057 42.8105 65.5485 42.6392 65.754 42.3309C66.8845 36.9868 67.3812 30.3581 65.754 26.3329Z" fill="#817E8C"/>
</g>
<path d="M65.2057 25.605C64.2893 25.605 54.7145 26.7012 45.6964 26.7012C36.6783 26.7012 27.1035 25.605 26.1957 25.605C24.577 29.6302 25.0738 36.2589 26.1957 41.603C26.4098 41.9113 26.4526 42.1254 26.5554 42.074C27.7458 40.4468 32.8501 34.5717 40.5065 32.8418V68.7087C40.4874 69.235 40.3391 69.7486 40.0747 70.2041C39.8104 70.6596 39.4381 71.0431 38.9906 71.3208V71.809H52.2395V71.2951C51.787 71.0359 51.4109 70.6618 51.1492 70.2107C50.8876 69.7595 50.7496 69.2474 50.7493 68.7258V32.8418C58.0118 33.544 63.6641 40.4468 64.846 42.074C64.9573 42.1254 65.0002 41.9113 65.2057 41.603C66.3362 36.2589 66.8329 29.6302 65.2057 25.605Z" fill="white"/>
<path d="M12.7673 95.1036C12.5018 95.1036 9.68414 95.4205 7.0378 95.4205C4.39146 95.4205 1.57383 95.1036 1.30834 95.1036C0.899825 96.6443 0.899825 98.2648 1.30834 99.8054C1.36829 99.891 1.38542 99.951 1.41111 99.9424C2.43956 98.6075 3.88268 97.6524 5.51337 97.2276V107.779C5.50843 107.934 5.46518 108.086 5.38748 108.22C5.30978 108.354 5.20004 108.468 5.06803 108.549V108.635H8.95618V108.489C8.82134 108.414 8.70952 108.303 8.63262 108.169C8.55572 108.034 8.51659 107.882 8.51941 107.727V97.1933C10.6519 97.3988 12.3134 99.4286 12.6645 99.9081C12.6645 99.9081 12.6645 99.8568 12.7673 99.7711C13.1697 98.2413 13.1697 96.6334 12.7673 95.1036Z" fill="#4C4757"/>
<path d="M28.0547 95.429H33.8527C34.8606 95.4042 35.8393 95.7693 36.5846 96.4482C36.9353 96.7754 37.2116 97.1741 37.3949 97.6174C37.5781 98.0607 37.6639 98.5381 37.6466 99.0175C37.6809 99.6314 37.5553 100.244 37.2821 100.795C37.0089 101.346 36.5974 101.816 36.0879 102.161C34.9919 102.873 33.6726 103.16 32.3796 102.966C32.9791 102.691 35.2058 101.518 34.9489 99.36C34.7348 97.4074 32.9106 97.4159 32.3796 97.4159H32.1398V106.563C32.1278 106.986 32.1857 107.408 32.3111 107.813C32.423 108.13 32.6219 108.409 32.8849 108.618H28.0547C28.3101 108.405 28.5026 108.127 28.6114 107.813C28.7357 107.408 28.7992 106.986 28.7998 106.563V97.5016C28.8131 97.0831 28.7522 96.6656 28.6199 96.2683C28.5031 95.9465 28.309 95.6583 28.0547 95.429Z" fill="#4C4757"/>
<path d="M48.3091 95.429L48.4889 98.161C48.0524 97.845 47.5739 97.5913 47.0673 97.4074C46.5805 97.2212 46.0639 97.1254 45.5428 97.1248C45.0546 97.1012 44.5676 97.1928 44.1213 97.3922C43.675 97.5915 43.2819 97.893 42.9736 98.2724C42.3019 99.2122 41.9807 100.358 42.0658 101.51C41.9757 102.919 42.3388 104.321 43.102 105.509C43.4587 105.979 43.9261 106.353 44.4626 106.598C44.9991 106.843 45.588 106.952 46.1766 106.914C46.7926 106.889 47.4015 106.774 47.9836 106.571C48.6095 106.396 49.2087 106.137 49.765 105.8L48.9086 108.472C48.4543 108.636 47.9832 108.748 47.504 108.806C46.8261 108.931 46.1379 108.991 45.4486 108.986C44.4977 109.048 43.5447 108.901 42.6569 108.555C41.7691 108.208 40.968 107.672 40.3101 106.982C39.089 105.615 38.4418 103.83 38.503 101.998C38.47 101.084 38.6188 100.173 38.9408 99.3175C39.2628 98.4618 39.7515 97.6786 40.3786 97.0134C41.0039 96.3649 41.7586 95.8551 42.5937 95.5172C43.4288 95.1793 44.3256 95.0209 45.2259 95.0522C45.7155 95.0554 46.2045 95.0868 46.6904 95.1464C47.2385 95.2149 47.7695 95.3091 48.3091 95.429Z" fill="#4C4757"/>
<path d="M50.7671 95.4291H55.623C55.3582 95.6577 55.1599 95.9536 55.0492 96.2855C54.9277 96.6848 54.8727 97.1015 54.8865 97.5187V104.01L59.3057 95.4462H62.9711C62.7033 95.6722 62.5044 95.9689 62.3973 96.3026C62.2683 96.7005 62.2103 97.1179 62.226 97.5359V106.605C62.2097 107.029 62.2677 107.452 62.3973 107.856C62.5053 108.175 62.7049 108.455 62.9711 108.661H58.1067C58.386 108.433 58.5891 108.125 58.689 107.779C58.8136 107.374 58.8743 106.952 58.8689 106.528V100.071L54.4069 108.635H50.75C51.0079 108.423 51.2033 108.145 51.3152 107.83C51.4481 107.427 51.509 107.004 51.4951 106.58V97.5016C51.4976 97.0832 51.434 96.6669 51.3067 96.2684C51.2015 95.9471 51.0157 95.6581 50.7671 95.4291Z" fill="#4C4757"/>
<path d="M85.94 95.429H90.8045C90.5345 95.6548 90.3328 95.9514 90.2221 96.2855C90.0839 96.6811 90.0285 97.1008 90.0594 97.5187V106.588C90.0279 107.012 90.0833 107.437 90.2221 107.839C90.3324 108.159 90.5351 108.439 90.8045 108.644H85.94C86.2004 108.432 86.3987 108.154 86.5138 107.839C86.6434 107.435 86.7014 107.012 86.6851 106.588V102.546H82.9853V106.588C82.9733 107.012 83.0312 107.434 83.1566 107.839C83.2669 108.159 83.4696 108.439 83.739 108.644H78.8745C79.1326 108.433 79.3257 108.154 79.4312 107.839C79.5633 107.435 79.627 107.013 79.6196 106.588V97.5016C79.6311 97.0839 79.5732 96.6671 79.4483 96.2683C79.3343 95.9381 79.1366 95.643 78.8745 95.4119H83.739C83.469 95.6377 83.2673 95.9343 83.1566 96.2683C83.0317 96.6671 82.9738 97.0839 82.9853 97.5016V100.645H86.6851V97.5016C86.7008 97.0836 86.6428 96.6662 86.5138 96.2683C86.3972 95.9442 86.1996 95.6553 85.94 95.429Z" fill="#4C4757"/>
<path d="M13.547 102.152C13.5164 100.319 14.1663 98.5403 15.3711 97.159C16.6554 95.8407 18.4089 95.0837 20.2492 95.0532C22.0894 95.0227 23.867 95.7212 25.1943 96.9963C26.4203 98.3468 27.0689 100.124 27.0013 101.946C27.0497 103.797 26.3808 105.596 25.1343 106.965C23.8423 108.234 22.1117 108.958 20.3007 108.987C18.4897 109.016 16.737 108.347 15.4054 107.119C14.7754 106.46 14.2858 105.68 13.9664 104.826C13.6469 103.972 13.5042 103.063 13.547 102.152ZM16.7757 101.595C16.7148 103.034 17.0653 104.46 17.7862 105.706C18.0541 106.186 18.4456 106.585 18.92 106.862C19.3945 107.139 19.9345 107.284 20.484 107.282C20.9439 107.282 21.3972 107.172 21.8056 106.96C22.214 106.749 22.5656 106.442 22.8306 106.066C23.5096 105.058 23.8349 103.853 23.7555 102.64C23.8177 101.144 23.4587 99.6602 22.7192 98.358C22.4912 97.8987 22.1459 97.5078 21.7182 97.2248C21.2906 96.9418 20.7958 96.7767 20.2839 96.7463C19.772 96.7159 19.2612 96.8212 18.8031 97.0515C18.3449 97.2819 17.9557 97.6292 17.6749 98.0582C17.0148 99.1151 16.7005 100.351 16.7757 101.595Z" fill="#4C4757"/>
<path d="M64.3581 102.152C64.3276 100.319 64.9775 98.5404 66.1823 97.159C67.4681 95.8402 69.223 95.083 71.0647 95.0525C72.9063 95.022 74.6853 95.7207 76.014 96.9963C77.2307 98.3514 77.8726 100.127 77.804 101.946C77.8492 103.799 77.1772 105.597 75.9284 106.965C74.6364 108.234 72.9057 108.958 71.0947 108.987C69.2837 109.016 67.5311 108.347 66.1995 107.119C65.5742 106.458 65.0888 105.677 64.7724 104.823C64.456 103.97 64.3151 103.061 64.3581 102.152ZM67.5954 101.595C67.5319 103.033 67.8795 104.459 68.5974 105.706C68.8653 106.186 69.2568 106.585 69.7312 106.862C70.2057 107.139 70.7457 107.284 71.2952 107.282C71.7524 107.287 72.2043 107.183 72.6127 106.977C73.0211 106.772 73.374 106.471 73.6418 106.1C74.3208 105.092 74.6461 103.887 74.5667 102.674C74.6367 101.181 74.2866 99.6971 73.5561 98.3923C73.3293 97.9328 72.9849 97.5416 72.558 97.2583C72.1311 96.9751 71.6368 96.8098 71.1253 96.7794C70.6139 96.7489 70.1035 96.8544 69.6459 97.085C69.1884 97.3156 68.8001 97.6633 68.5203 98.0925C67.8545 99.1352 67.5311 100.36 67.5954 101.595Z" fill="#4C4757"/>
<defs>
<linearGradient id="paint0_linear" x1="74.7808" y1="84.0986" x2="1.89932" y2="-11.9748" gradientUnits="userSpaceOnUse">
<stop stop-color="#2C3034"/>
<stop offset="0.31" stop-color="#777480"/>
<stop offset="0.54" stop-color="#A09BA7"/>
<stop offset="0.73" stop-color="#777480"/>
<stop offset="0.99" stop-color="#2C3034"/>
</linearGradient>
<linearGradient id="paint1_linear" x1="27.5491" y1="22.4105" x2="53.2417" y2="60.9495" gradientUnits="userSpaceOnUse">
<stop stop-color="#BFBDC4"/>
<stop offset="1" stop-color="#96939D"/>
</linearGradient>
</defs>
</svg>
