<svg width="26" height="26" viewBox="0 0 26 26" fill="none" xmlns="http://www.w3.org/2000/svg">
<path d="M25.667 12.5033C25.667 19.4082 20.0259 25.0058 13.0658 25.0058C10.857 25.0058 8.7822 24.4409 6.97605 23.4516L0 25.667L2.27402 18.9571C1.12738 17.0739 0.467023 14.8627 0.467023 12.5025C0.46786 5.59758 6.10728 0 13.0674 0C20.0267 0.00167392 25.667 5.59841 25.667 12.5033ZM13.0649 1.99363C7.22379 1.99363 2.47237 6.70906 2.47237 12.5058C2.47237 14.8058 3.22229 16.935 4.49028 18.6675L3.16789 22.5703L7.23718 21.2772C8.9111 22.3752 10.9139 23.0147 13.0649 23.0147C18.9061 23.0147 23.6591 18.3001 23.6591 12.5033C23.6608 6.70906 18.9069 1.99363 13.0649 1.99363ZM19.4291 15.3833C19.3505 15.2569 19.1446 15.1799 18.8366 15.0259C18.5294 14.8719 17.0087 14.1312 16.7266 14.0308C16.442 13.9278 16.2362 13.8759 16.0303 14.1831C15.8269 14.4903 15.2343 15.1799 15.0527 15.3858C14.8727 15.5909 14.6928 15.6168 14.384 15.4653C14.0751 15.3096 13.0791 14.9882 11.899 13.9446C10.9809 13.131 10.3607 12.1292 10.1816 11.822C9.99998 11.5157 10.1632 11.35 10.3163 11.1977C10.4544 11.0596 10.6252 10.8394 10.78 10.6595C10.9349 10.4812 10.9859 10.3548 11.0889 10.1498C11.1901 9.94474 11.1391 9.76647 11.0629 9.61163C10.9859 9.45763 10.3691 7.9511 10.1105 7.33761C9.85351 6.72496 9.59656 6.82623 9.41578 6.82623C9.23584 6.82623 9.02994 6.80112 8.82405 6.80112C8.61816 6.80112 8.28338 6.87561 8.00132 7.18278C7.71927 7.48994 6.92081 8.23065 6.92081 9.73885C6.92081 11.2487 8.02643 12.7042 8.18127 12.9084C8.33694 13.1118 10.3189 16.3081 13.4583 17.5351C16.5994 18.7613 16.5994 18.352 17.1652 18.3001C17.7326 18.2482 18.9931 17.5594 19.2492 16.8446C19.507 16.1265 19.507 15.5113 19.4291 15.3833Z" fill="white"/>
</svg>
