<svg width="106" height="27" viewBox="0 0 106 27" fill="none" xmlns="http://www.w3.org/2000/svg">
<path fill-rule="evenodd" clip-rule="evenodd" d="M0.516672 17.6505C-0.352501 13.6775 0.0260867 9.5375 2.14434 6.42705C5.00742 2.22243 10.4474 -0.271692 14.6315 0.468914C17.2819 3.40282 18.1851 6.68617 18.1509 10.3711C10.8226 7.9226 4.82142 9.93557 0.516672 17.6505Z" fill="url(#paint0_linear)"/>
<path fill-rule="evenodd" clip-rule="evenodd" d="M0.435158 17.3112C-0.434015 13.338 -0.0552624 9.19818 2.06282 6.08774C4.92608 1.88312 10.3659 -0.611167 14.5501 0.129603C17.2004 3.06334 18.1036 6.34686 18.0696 10.0318C10.7412 7.58313 4.74007 9.5961 0.435158 17.3112Z" fill="url(#paint1_linear)"/>
<path fill-rule="evenodd" clip-rule="evenodd" d="M23.3632 22.1107C20.3881 24.8772 16.6366 26.6503 12.8876 26.3989C7.81992 26.059 2.91571 22.6258 1.42981 18.6362C2.60767 14.8585 4.97245 12.4126 8.15805 10.5728C9.77074 18.1445 14.546 22.3066 23.3632 22.1107Z" fill="url(#paint2_linear)"/>
<path fill-rule="evenodd" clip-rule="evenodd" d="M23.0504 22.3211C20.0754 25.0874 16.3239 26.8605 12.5748 26.6091C7.50714 26.2692 2.60293 22.836 1.11703 18.8464C2.2949 15.0688 4.65967 12.623 7.84527 10.783C9.45797 18.3548 14.2331 22.5168 23.0504 22.3211Z" fill="url(#paint3_linear)"/>
<path fill-rule="evenodd" clip-rule="evenodd" d="M15.938 0.244141C19.7869 1.53381 23.1388 3.98261 24.7168 7.4003C26.8498 12.0201 26.1964 17.9801 23.4164 21.2005C19.5442 21.9764 16.2688 21.0698 13.1299 19.1508C18.9853 14.1007 20.3387 7.9047 15.938 0.244141Z" fill="url(#paint4_linear)"/>
<path fill-rule="evenodd" clip-rule="evenodd" d="M16.503 0.566162C20.3519 1.85583 23.7036 4.30479 25.2816 7.72249C27.4148 12.3423 26.7614 18.3021 23.9812 21.5225C20.1092 22.2986 16.8336 21.3918 13.6949 19.4728C19.5502 14.4227 20.9035 8.22689 16.503 0.566162Z" fill="url(#paint5_linear)"/>
<path d="M43.5309 5.09937L40.5417 13.424H38.8611L36.938 8.04695L35.0153 13.424H33.3184L30.3292 5.09937H32.3975L34.1587 10.0716L35.8876 5.09937H37.9885L37.9562 5.16431L39.6854 10.0716L41.4788 5.09937H43.5309ZM52.9517 7.04294H46.0194V8.28975H52.4991V10.2335H46.0194V11.4806H52.9354V13.424H44.0806V5.09937H52.9517V7.04294ZM62.9057 13.424H56.4743C55.7202 13.424 55.0795 13.1732 54.5516 12.6737C54.0237 12.1716 53.7597 11.5424 53.7597 10.7896V7.73393C53.7597 6.9808 54.0237 6.35195 54.5516 5.84986C55.0795 5.35041 55.7202 5.09937 56.4743 5.09937H62.9057V7.04294H56.4743C55.9572 7.04294 55.6987 7.27503 55.6987 7.73657V10.7868C55.6987 11.2484 55.9572 11.4806 56.4743 11.4806H62.9057V13.424ZM73.9584 13.424H71.9872V10.2335H65.6526V13.424H63.7138V5.09937H65.6526V8.28975H71.9872V5.09937H73.9584V13.424ZM83.6377 7.04294H76.7054V8.28975H83.1851V10.2335H76.7054V11.4806H83.6214V13.424H74.7665V5.09937H83.6377V7.04294ZM94.6421 13.424H92.7029V10.7842H87.5966V8.84063H92.7029V7.67459C92.7029 7.25327 92.563 7.04294 92.2827 7.04294H86.7888C86.5195 7.04294 86.3847 7.25327 86.3847 7.67179V13.424H84.4457V7.66931C84.4457 6.96992 84.6639 6.3653 85.1002 5.85794C85.5366 5.35305 86.0993 5.09937 86.7888 5.09937H92.2827C92.983 5.09937 93.5514 5.35305 93.9877 5.85794C94.424 6.3653 94.6421 6.96992 94.6421 7.66931V13.424ZM105.856 7.91756C105.856 8.66245 105.652 9.29954 105.242 9.82866C104.801 10.4224 104.219 10.7193 103.497 10.7193H97.389V13.424H95.4501V5.09937H103.497C104.219 5.09937 104.801 5.3964 105.242 5.99014C105.652 6.53014 105.856 7.17233 105.856 7.91756ZM103.917 7.91756C103.917 7.3342 103.777 7.04294 103.497 7.04294H97.389V8.77585H103.497C103.777 8.77585 103.917 8.4897 103.917 7.91756Z" fill="#FEFEFE"/>
<path d="M32.8139 17.3403L32.602 17.5035C32.4854 17.351 32.3451 17.2354 32.1813 17.1566C32.018 17.078 31.8386 17.0386 31.6422 17.0386C31.4284 17.0386 31.2303 17.0905 31.0477 17.1936C30.865 17.2966 30.7242 17.4352 30.6239 17.609C30.5236 17.7825 30.4731 17.9787 30.4731 18.1954C30.4731 18.5241 30.5852 18.7982 30.8096 19.0175C31.0339 19.2374 31.3169 19.3473 31.659 19.3473C32.0348 19.3473 32.3489 19.1999 32.602 18.9051L32.8139 19.0663C32.6798 19.2367 32.5129 19.3692 32.3127 19.4622C32.1128 19.5553 31.8891 19.6021 31.6422 19.6021C31.1724 19.6021 30.8015 19.4454 30.5303 19.1319C30.3029 18.8676 30.1889 18.5479 30.1889 18.1737C30.1889 17.78 30.3266 17.4484 30.602 17.1799C30.8782 16.9105 31.2234 16.7764 31.6385 16.7764C31.8891 16.7764 32.1152 16.8257 32.3172 16.9244C32.5191 17.0236 32.6849 17.1622 32.8139 17.3403ZM33.3523 16.8438H33.6253V17.8532L34.7015 16.8438H35.063L33.7692 18.0505L35.164 19.5347H34.8056L33.6253 18.278V19.5347H33.3523V16.8438ZM37.738 19.5347H37.4457L36.5545 17.4515L35.6483 19.5347H35.3561L36.5264 16.8438H36.5862L37.738 19.5347ZM39.2867 16.8438L40.5394 19.5347H40.2507L39.8314 18.6502H38.6678L38.2509 19.5347H37.9518L39.2194 16.8438H39.2867ZM39.253 17.4085L38.7912 18.3878H39.713L39.253 17.4085ZM40.9532 19.9358H40.6839V19.2837H40.8989L41.9523 16.8438H42.045L43.1576 19.2837H43.365V19.9358H43.0957V19.5347H40.9532V19.9358ZM41.2018 19.2837H42.8397L42.0001 17.4059L41.2018 19.2837ZM47.9368 19.5347H47.6564V17.4672L45.8845 19.5347H45.8241V16.8438H46.0934V18.942L47.8764 16.8438H47.9368V19.5347ZM48.5825 16.8438H48.8517V17.9719H50.2203V16.8438H50.4896V19.5347H50.2203V18.2342H48.8517V19.5347H48.5825V16.8438ZM51.1408 19.9358H50.8716V19.2837H51.0865L52.1399 16.8438H52.2327L53.3452 19.2837H53.5526V19.9358H53.2834V19.5347H51.1408V19.9358ZM51.3895 19.2837H53.0273L52.1878 17.4059L51.3895 19.2837ZM56.0542 19.5347H55.7738V17.4672L54.0019 19.5347H53.9416V16.8438H54.2108V18.942L55.9939 16.8438H56.0542V19.5347ZM56.7113 16.8438H57.2403C57.4535 16.8438 57.6174 16.8687 57.7314 16.9193C57.846 16.9699 57.9365 17.048 58.0024 17.153C58.0692 17.2572 58.1023 17.3741 58.1023 17.5015C58.1023 17.6215 58.073 17.7301 58.0149 17.8282C57.957 17.9263 57.8717 18.0055 57.7595 18.0669C57.899 18.1143 58.0062 18.1699 58.081 18.2342C58.1564 18.298 58.2144 18.3754 58.2562 18.4666C58.298 18.5571 58.3192 18.6558 58.3192 18.762C58.3192 18.9782 58.2406 19.1612 58.0828 19.3105C57.9253 19.4597 57.714 19.5347 57.4485 19.5347H56.7113V16.8438ZM56.9729 17.106V17.9681H57.1268C57.3138 17.9681 57.4517 17.9507 57.5395 17.9162C57.6273 17.8813 57.6972 17.8264 57.7482 17.7514C57.8 17.6764 57.8255 17.5926 57.8255 17.5015C57.8255 17.3785 57.7825 17.2816 57.6965 17.211C57.6099 17.1411 57.4727 17.106 57.2846 17.106H56.9729ZM56.9729 18.238V19.2723H57.3064C57.5026 19.2723 57.6467 19.253 57.7383 19.2149C57.8299 19.1762 57.9034 19.1155 57.9588 19.0338C58.0143 18.9519 58.0424 18.8632 58.0424 18.7682C58.0424 18.6484 58.0031 18.5434 57.9253 18.4541C57.8473 18.3654 57.7401 18.3042 57.6036 18.2711C57.512 18.2492 57.3525 18.238 57.125 18.238H56.9729ZM60.9672 19.5347H60.6868V17.4672L58.9149 19.5347H58.8545V16.8438H59.1237V18.942L60.9068 16.8438H60.9672V19.5347ZM61.6166 19.9358H61.3474V19.2837H61.5623L62.6157 16.8438H62.7085L63.821 19.2837H64.0284V19.9358H63.7592V19.5347H61.6166V19.9358ZM61.8653 19.2837H63.5031L62.6636 17.4059L61.8653 19.2837ZM64.2098 16.8512H64.5108L65.326 18.6789L66.0695 16.8438H66.3636L65.3434 19.2618C65.2487 19.4886 65.0805 19.6021 64.8381 19.6021C64.7409 19.6021 64.6493 19.5822 64.5626 19.5428C64.4759 19.5029 64.3669 19.4091 64.2342 19.2618L64.4299 19.1005C64.5644 19.2336 64.6542 19.3092 64.6991 19.3274C64.7445 19.3455 64.79 19.3549 64.8361 19.3549C64.9066 19.3549 64.9677 19.3361 65.0195 19.2987C65.0711 19.2604 65.1278 19.1668 65.1895 19.0163L64.2098 16.8512ZM67.9286 16.8438L69.1813 19.5347H68.8927L68.4733 18.6502H67.3097L66.8928 19.5347H66.5937L67.8613 16.8438H67.9286ZM67.8949 17.4085L67.4331 18.3878H68.3549L67.8949 17.4085ZM71.7714 19.5347H71.4791L70.5879 17.4515L69.6817 19.5347H69.3895L70.5598 16.8438H70.6197L71.7714 19.5347ZM72.2207 16.8438H72.4899V17.9981H72.6838C73.0353 17.9981 73.2877 18.0149 73.441 18.0494C73.5943 18.0837 73.7176 18.1618 73.8112 18.2841C73.9052 18.4072 73.952 18.5653 73.952 18.7588C73.952 18.9494 73.9066 19.1068 73.815 19.2318C73.7238 19.3567 73.6074 19.4385 73.4665 19.4772C73.325 19.5154 73.0882 19.5347 72.756 19.5347H72.2207V16.8438ZM72.4899 19.2723H72.7766C73.0788 19.2723 73.2759 19.258 73.3675 19.2293C73.4591 19.2006 73.5326 19.1475 73.5869 19.0694C73.641 18.9919 73.6678 18.892 73.6678 18.7702C73.6678 18.6359 73.6336 18.5272 73.5656 18.4429C73.4971 18.3591 73.4104 18.3079 73.3051 18.2886C73.1997 18.2698 73.0035 18.2604 72.7162 18.2604H72.4899V19.2723ZM74.483 16.8438H74.7522V17.9719H76.1208V16.8438H76.3901V19.5347H76.1208V18.2342H74.7522V19.5347H74.483V16.8438ZM78.3215 16.7764C78.7279 16.7764 79.0681 16.9125 79.3416 17.1842C79.6153 17.456 79.7523 17.7908 79.7523 18.188C79.7523 18.5821 79.616 18.9163 79.343 19.1905C79.0693 19.4648 78.7366 19.6021 78.3432 19.6021C77.9457 19.6021 77.6097 19.4653 77.3362 19.1924C77.0626 18.9194 76.9254 18.5891 76.9254 18.201C76.9254 17.9426 76.9877 17.7032 77.1124 17.4822C77.237 17.2616 77.4073 17.0886 77.6229 16.9636C77.8378 16.8388 78.0709 16.7764 78.3215 16.7764ZM78.3333 17.0386C78.1352 17.0386 77.9469 17.0905 77.7686 17.1942C77.591 17.2979 77.452 17.4372 77.3517 17.6127C77.252 17.7888 77.2022 17.9843 77.2022 18.2005C77.2022 18.5197 77.3125 18.7895 77.5337 19.0094C77.7549 19.2299 78.0217 19.3399 78.3333 19.3399C78.542 19.3399 78.7346 19.2893 78.9116 19.1881C79.0892 19.0869 79.2277 18.9482 79.3267 18.7727C79.4258 18.5971 79.4757 18.4023 79.4757 18.1874C79.4757 17.9737 79.4258 17.7807 79.3267 17.6083C79.2277 17.4359 79.0874 17.2979 78.9073 17.1942C78.7272 17.0905 78.5358 17.0386 78.3333 17.0386ZM80.5568 19.5347H80.2876V16.8438H81.6339V17.106H80.5568V19.5347ZM83.2986 16.7764C83.7049 16.7764 84.0452 16.9125 84.3187 17.1842C84.5924 17.456 84.7294 17.7908 84.7294 18.188C84.7294 18.5821 84.593 18.9163 84.32 19.1905C84.0464 19.4648 83.7137 19.6021 83.3203 19.6021C82.9228 19.6021 82.5868 19.4653 82.3133 19.1924C82.0396 18.9194 81.9025 18.5891 81.9025 18.201C81.9025 17.9426 81.9648 17.7032 82.0895 17.4822C82.2141 17.2616 82.3843 17.0886 82.5999 16.9636C82.8149 16.8388 83.0479 16.7764 83.2986 16.7764ZM83.3104 17.0386C83.1122 17.0386 82.9239 17.0905 82.7456 17.1942C82.568 17.2979 82.4291 17.4372 82.3287 17.6127C82.2291 17.7888 82.1792 17.9843 82.1792 18.2005C82.1792 18.5197 82.2896 18.7895 82.5108 19.0094C82.732 19.2299 82.9987 19.3399 83.3104 19.3399C83.5191 19.3399 83.7117 19.2893 83.8886 19.1881C84.0663 19.0869 84.2047 18.9482 84.3037 18.7727C84.4029 18.5971 84.4527 18.4023 84.4527 18.1874C84.4527 17.9737 84.4029 17.7807 84.3037 17.6083C84.2047 17.4359 84.0644 17.2979 83.8844 17.1942C83.7043 17.0905 83.5129 17.0386 83.3104 17.0386ZM87.1984 16.8438H87.5125L88.1546 17.8888L88.7989 16.8438H89.1131L88.311 18.1437L89.1654 19.5347H88.8512L88.1539 18.3992L87.4528 19.5347H87.1387L87.9969 18.1437L87.1984 16.8438ZM89.6153 16.8438H90.1506C90.4574 16.8438 90.6649 16.8568 90.772 16.8837C90.9254 16.9219 91.0506 16.9992 91.1478 17.1174C91.2456 17.2348 91.2943 17.3828 91.2943 17.5608C91.2943 17.7402 91.2469 17.8875 91.1515 18.0044C91.0568 18.1206 90.9259 18.1986 90.7596 18.2393C90.6374 18.2686 90.41 18.283 90.0765 18.283H89.8845V19.5347H89.6153V16.8438ZM89.8845 17.106V18.0205L90.3396 18.0261C90.5233 18.0261 90.658 18.0093 90.7433 17.9755C90.8287 17.9419 90.8961 17.8882 90.9447 17.8132C90.9933 17.7382 91.0175 17.654 91.0175 17.5615C91.0175 17.4715 90.9933 17.3884 90.9447 17.3136C90.8961 17.2386 90.8312 17.1855 90.7514 17.1535C90.6716 17.1217 90.5414 17.106 90.3595 17.106H89.8845ZM92.9279 16.8438L94.1806 19.5347H93.8919L93.4726 18.6502H92.309L91.8921 19.5347H91.593L92.8606 16.8438H92.9279ZM92.8942 17.4085L92.4324 18.3878H93.3542L92.8942 17.4085ZM94.5906 16.8438H94.8598V17.9719H96.2284V16.8438H96.4977V19.5347H96.2284V18.2342H94.8598V19.5347H94.5906V16.8438ZM97.1527 16.8438H98.6896V17.106H97.4219V17.9493H98.6784V18.2118H97.4219V19.2723H98.6784V19.5347H97.1527V16.8438ZM99.1501 16.8438H99.4193V17.9719H100.788V16.8438H101.057V19.5347H100.788V18.2342H99.4193V19.5347H99.1501V16.8438ZM103.825 19.5347H103.544V17.4672L101.773 19.5347H101.712V16.8438H101.981V18.942L103.764 16.8438H103.825V19.5347ZM106 16.8438H105.464C105.166 16.8438 104.963 16.8563 104.857 16.8805C104.697 16.9168 104.567 16.9949 104.467 17.1154C104.367 17.2354 104.317 17.3835 104.317 17.559C104.317 17.7052 104.352 17.8338 104.421 17.9444C104.489 18.0555 104.588 18.1392 104.716 18.1961C104.844 18.253 105.021 18.2816 105.246 18.283L104.28 19.5347H104.609L105.576 18.283H105.731V19.5347H106V16.8438ZM105.731 17.106V18.0205L105.267 18.0243C105.087 18.0243 104.954 18.0075 104.868 17.9731C104.782 17.9388 104.715 17.8844 104.666 17.8094C104.618 17.7346 104.594 17.6508 104.594 17.5577C104.594 17.4679 104.618 17.3853 104.668 17.3116C104.716 17.2379 104.78 17.1855 104.86 17.1535C104.939 17.1217 105.071 17.106 105.256 17.106H105.731Z" fill="#FEFEFE"/>
<defs>
<linearGradient id="paint0_linear" x1="-1.5473" y1="14.0459" x2="17.1954" y2="4.56753" gradientUnits="userSpaceOnUse">
<stop stop-color="#5B5B5B"/>
<stop offset="0.360784" stop-color="#C5C6C6"/>
<stop offset="0.54902" stop-color="#FEFEFE"/>
<stop offset="0.819608" stop-color="#C5C6C6"/>
<stop offset="1" stop-color="#5B5B5B"/>
</linearGradient>
<linearGradient id="paint1_linear" x1="-3.41453" y1="14.2728" x2="17.9704" y2="7.52493" gradientUnits="userSpaceOnUse">
<stop stop-color="#393185"/>
<stop offset="0.360784" stop-color="#008DD2"/>
<stop offset="0.54902" stop-color="#FEFEFE"/>
<stop offset="0.819608" stop-color="#3B8AC9"/>
<stop offset="1" stop-color="#192226"/>
</linearGradient>
<linearGradient id="paint2_linear" x1="21.3106" y1="25.7229" x2="3.60952" y2="14.412" gradientUnits="userSpaceOnUse">
<stop stop-color="#727271"/>
<stop offset="0.360784" stop-color="#D9DADA"/>
<stop offset="0.54902" stop-color="#FEFEFE"/>
<stop offset="0.819608" stop-color="#D9DADA"/>
<stop offset="1" stop-color="#9D9E9E"/>
</linearGradient>
<linearGradient id="paint3_linear" x1="21.0031" y1="28.2229" x2="3.28987" y2="14.6239" gradientUnits="userSpaceOnUse">
<stop stop-color="#1F3747"/>
<stop offset="0.360784" stop-color="#008DD2"/>
<stop offset="0.54902" stop-color="#FEFEFE"/>
<stop offset="0.819608" stop-color="#3A87C4"/>
<stop offset="1" stop-color="#1F3747"/>
</linearGradient>
<linearGradient id="paint4_linear" x1="24.4079" y1="2.92074" x2="19.3826" y2="20.5356" gradientUnits="userSpaceOnUse">
<stop stop-color="#1F3747"/>
<stop offset="0.360784" stop-color="#3A87C4"/>
<stop offset="0.54902" stop-color="#FEFEFE"/>
<stop offset="0.819608" stop-color="#008DD2"/>
<stop offset="1" stop-color="#1F3747"/>
</linearGradient>
<linearGradient id="paint5_linear" x1="23.6896" y1="1.85023" x2="19.5674" y2="21.8917" gradientUnits="userSpaceOnUse">
<stop stop-color="#727271"/>
<stop offset="0.360784" stop-color="#D9DADA"/>
<stop offset="0.54902" stop-color="#FEFEFE"/>
<stop offset="0.819608" stop-color="#B2B3B3"/>
<stop offset="1" stop-color="#C5C6C6"/>
</linearGradient>
</defs>
</svg>
