<svg width="42" height="42" viewBox="0 0 42 42" fill="none" xmlns="http://www.w3.org/2000/svg">
<path d="M34.673 16.697L31.8093 13.8335L31.9036 13.4374L35.035 12.511C35.2729 12.4407 35.4364 12.222 35.4364 11.9739C35.4364 11.7259 35.2729 11.5072 35.035 11.4369L31.9036 10.5105L31.2211 7.64429C31.1609 7.39187 30.9357 7.21393 30.6764 7.21393C30.4171 7.21393 30.1919 7.39187 30.1317 7.64429L29.4497 10.5105L28.7063 10.7305L24.2336 6.25829C23.4068 5.43117 22.3069 4.97561 21.1378 4.97561C19.9681 4.97561 18.8688 5.43117 18.042 6.25829L7.60272 16.697C5.89542 18.404 5.89542 21.1822 7.60272 22.8892L8.12548 23.4119L7.51074 25.5937C7.18804 27.2926 5.21446 30.2137 5.19472 30.2429C5.0438 30.4653 5.07166 30.7636 5.26192 30.9536L11.4712 37.1629C11.5794 37.2711 11.7228 37.3269 11.8671 37.3269C11.9721 37.3269 12.0782 37.2974 12.1712 37.2369L15.5077 35.0773C16.3645 34.5226 17.1847 33.9101 17.9701 33.2563L18.0418 33.3278C18.8687 34.155 19.9679 34.6102 21.1376 34.6102C22.3069 34.6102 23.4066 34.155 24.2335 33.3278L34.6727 22.8892C36.3797 21.1819 36.3797 18.4043 34.673 16.697ZM30.078 11.4926C30.2705 11.4358 30.4177 11.2804 30.4642 11.0852L30.6764 10.193L30.8892 11.0852C30.9357 11.2805 31.0828 11.4358 31.2753 11.4926L32.9023 11.9739L31.2753 12.4553C31.0828 12.5121 30.9357 12.6675 30.8892 12.8627L30.6764 13.7549L30.4642 12.8627C30.4177 12.6674 30.2705 12.5121 30.078 12.4553L28.4511 11.9739L30.078 11.4926ZM14.899 34.1373L11.9431 36.0508L6.37646 30.4842C6.95284 29.5887 8.31574 27.3552 8.60008 25.8502L10.9878 17.3753C11.0813 16.8842 11.5171 16.5467 12.0246 16.5966C12.2833 16.6212 12.5163 16.7458 12.6804 16.9477C12.8384 17.1419 12.9133 17.3841 12.8926 17.6324L11.7792 22.4575C11.7235 22.7011 11.8349 22.9522 12.0537 23.0733C12.2709 23.1944 12.5437 23.1564 12.721 22.9795L20.7606 14.9401C21.0739 14.6271 21.617 14.628 21.9293 14.9401C22.0852 15.0962 22.1715 15.3038 22.1715 15.5245C22.1715 15.7454 22.0852 15.953 21.9293 16.1091C21.9293 16.1091 21.9293 16.1093 21.9292 16.1093L16.0143 22.0244C15.7957 22.2431 15.7957 22.5975 16.0143 22.8162C16.233 23.0349 16.5875 23.0349 16.8062 22.8162L24.3553 15.2669C24.678 14.9447 25.2018 14.9447 25.5245 15.2669C25.6804 15.423 25.7663 15.6306 25.7663 15.8515C25.7663 16.0721 25.6805 16.2798 25.5245 16.4359L23.5514 18.4089C23.5511 18.4092 23.5507 18.4095 23.5503 18.4097L17.9749 23.9851C17.7562 24.2038 17.7562 24.5582 17.9749 24.7769C18.0842 24.8863 18.2276 24.941 18.3708 24.941C18.514 24.941 18.6574 24.8863 18.7667 24.7769L24.3428 19.2011C24.6721 18.8724 25.2076 18.8726 25.5377 19.2016C25.867 19.5311 25.867 20.0676 25.5377 20.397L23.9299 22.0048L19.6616 26.2728C19.4429 26.4915 19.4429 26.846 19.6616 27.0647C19.8803 27.2833 20.2348 27.2833 20.4535 27.0647L20.7535 26.7646C20.7538 26.7644 20.754 26.7644 20.7542 26.7641L24.7218 22.7965C25.0264 22.4916 25.5586 22.4907 25.8642 22.7968C26.0168 22.9491 26.1009 23.152 26.1009 23.3677C26.1009 23.5834 26.0166 23.7863 25.8642 23.9389L18.9079 30.8953C17.6914 32.1117 16.3428 33.2024 14.899 34.1373ZM33.881 22.0973L23.4418 32.536C22.826 33.1514 22.0079 33.4902 21.1378 33.4902C20.2671 33.4902 19.4491 33.1514 18.8338 32.5357L18.8199 32.5219C19.1191 32.2498 19.414 31.9732 19.6996 31.6875L26.6559 24.731C27.0202 24.3667 27.2208 23.8827 27.2208 23.368C27.2208 22.8528 27.02 22.3688 26.6559 22.0052C26.4539 21.8028 26.2083 21.6625 25.9459 21.5725L26.3294 21.189C27.0956 20.4228 27.0956 19.1759 26.3294 18.4095C26.1145 18.195 25.8603 18.047 25.5912 17.9528L26.3162 17.2277C26.6837 16.8602 26.886 16.3713 26.886 15.8515C26.886 15.3314 26.6837 14.8425 26.3162 14.4748C25.5555 13.7154 24.3218 13.7168 23.5633 14.475L23.1706 14.8677C23.0768 14.6054 22.9309 14.3578 22.7212 14.1483C21.9867 13.413 20.7043 13.4119 19.9688 14.1483L13.3101 20.807L13.9926 17.8492C13.9975 17.8279 14.0009 17.8065 14.0035 17.7852C14.0653 17.226 13.9045 16.6778 13.5496 16.2411C13.1947 15.8047 12.691 15.5348 12.131 15.4815C11.0504 15.3797 10.0895 16.1032 9.89872 17.1188L8.47394 22.1763L8.39484 22.0972C7.12448 20.8266 7.12448 18.7593 8.39484 17.4887L18.8341 7.04999C19.4494 6.43455 20.2674 6.09547 21.1381 6.09547C22.0082 6.09547 22.8263 6.43455 23.442 7.04999L27.4843 11.0918L26.3181 11.4368C26.0802 11.507 25.9167 11.7257 25.9167 11.9738C25.9167 12.2219 26.0802 12.4406 26.3181 12.5108L29.45 13.4372L30.1319 16.3034C30.1921 16.5559 30.4174 16.7338 30.6767 16.7338C30.936 16.7338 31.1612 16.5559 31.2214 16.3034L31.5049 15.1126L33.8814 17.4888C35.1509 18.7594 35.1509 20.8267 33.881 22.0973Z" fill="#00A1E9"/>
<path d="M8.25775 6.91306C8.56729 6.91306 8.81775 6.66232 8.81775 6.35306V5.23306C8.81775 4.9238 8.56729 4.67306 8.25775 4.67306C7.94821 4.67306 7.69775 4.9238 7.69775 5.23306V6.35306C7.69775 6.66232 7.94821 6.91306 8.25775 6.91306Z" fill="#00A1E9"/>
<path d="M8.25775 8.03306C7.94821 8.03306 7.69775 8.2838 7.69775 8.59306V9.71306C7.69775 10.0223 7.94821 10.2731 8.25775 10.2731C8.56729 10.2731 8.81775 10.0223 8.81775 9.71306V8.59306C8.81775 8.2838 8.56729 8.03306 8.25775 8.03306Z" fill="#00A1E9"/>
<path d="M6.01776 8.03306H7.13776C7.4473 8.03306 7.69776 7.78232 7.69776 7.47306C7.69776 7.1638 7.4473 6.91306 7.13776 6.91306H6.01776C5.70822 6.91306 5.45776 7.1638 5.45776 7.47306C5.45776 7.78232 5.70822 8.03306 6.01776 8.03306Z" fill="#00A1E9"/>
<path d="M9.37787 8.03306H10.4979C10.8074 8.03306 11.0579 7.78232 11.0579 7.47306C11.0579 7.1638 10.8074 6.91306 10.4979 6.91306H9.37787C9.06833 6.91306 8.81787 7.1638 8.81787 7.47306C8.81787 7.78232 9.06833 8.03306 9.37787 8.03306Z" fill="#00A1E9"/>
<path d="M32.0579 32.113C30.9772 32.113 30.0979 32.9924 30.0979 34.073C30.0979 35.1537 30.9772 36.033 32.0579 36.033C33.1386 36.033 34.0179 35.1537 34.0179 34.073C34.0179 32.9924 33.1386 32.113 32.0579 32.113ZM32.0579 34.913C31.5946 34.913 31.2179 34.5363 31.2179 34.073C31.2179 33.6098 31.5946 33.233 32.0579 33.233C32.5212 33.233 32.8979 33.6098 32.8979 34.073C32.8979 34.5363 32.521 34.913 32.0579 34.913Z" fill="#00A1E9"/>
<path d="M36.3037 28.4892C35.973 28.4892 35.7051 28.7573 35.7051 29.0878C35.7051 29.4185 35.973 29.6866 36.3037 29.6866C36.6344 29.6866 36.9024 29.4185 36.9024 29.0878C36.9025 28.7571 36.6344 28.4892 36.3037 28.4892Z" fill="#00A1E9"/>
</svg>
