<svg width="34" height="34" viewBox="0 0 34 34" fill="none" xmlns="http://www.w3.org/2000/svg">
<g clip-path="url(#clip0)">
<path d="M19.125 5.31252V7.43752C19.125 9.1328 20.2141 10.4087 21.7813 10.6442V11.1563C21.7813 11.8587 22.8438 11.8596 22.8438 11.1563V10.283C24.0325 7.90774 23.0931 4.25002 20.404 4.25002H19.809C20.8981 0.992128 24.143 0.406557 26.3102 1.68906C26.9154 2.04766 27.4559 1.13238 26.8513 0.774647C23.3988 -1.26834 19.2369 0.86144 18.5963 4.69408C18.5837 4.77017 18.5877 4.84812 18.6082 4.92249C18.6287 4.99685 18.6652 5.06587 18.7151 5.12472C18.7649 5.18476 18.8277 5.23281 18.8987 5.26532C18.9696 5.29783 19.047 5.31396 19.125 5.31252ZM20.1875 5.31252H20.404C22.1561 5.31252 22.6808 7.93663 21.9865 9.59991C20.9123 9.45733 20.1875 8.60833 20.1875 7.43752V5.31252Z" fill="#00A1E9"/>
<path d="M4.25 19.125C4.25 18.4226 3.1875 18.4217 3.1875 19.125C3.1875 19.8284 4.25 19.8284 4.25 19.125Z" fill="#00A1E9"/>
<path d="M1.59369 18.5937C2.29607 18.5937 2.29707 17.5312 1.59369 17.5312C0.890318 17.5312 0.890318 18.5937 1.59369 18.5937Z" fill="#00A1E9"/>
<path d="M3.71881 22.8438C3.01643 22.8438 3.01543 23.9063 3.71881 23.9063C4.42119 23.9063 4.42218 22.8438 3.71881 22.8438Z" fill="#00A1E9"/>
<path d="M1.0625 24.4375C1.0625 25.1399 2.125 25.1409 2.125 24.4375C2.125 23.7342 1.0625 23.7342 1.0625 24.4375Z" fill="#00A1E9"/>
<path d="M4.25 21.25C4.25 21.9524 5.3125 21.9534 5.3125 21.25C5.3125 20.5467 4.25 20.5467 4.25 21.25Z" fill="#00A1E9"/>
<path d="M0 21.25C0 21.9524 1.0625 21.9534 1.0625 21.25C1.0625 20.5467 0 20.5467 0 21.25Z" fill="#00A1E9"/>
<path d="M2.65631 20.7188C1.95393 20.7188 1.95293 21.7813 2.65631 21.7813C3.35869 21.7813 3.35968 20.7188 2.65631 20.7188Z" fill="#00A1E9"/>
<path d="M33.4688 10.625H28.1562C27.6022 10.625 27.6277 11.2171 27.625 11.2237C27.2985 10.7522 26.9262 10.314 26.5136 9.91551C28.8538 8.88117 29.8831 6.85757 29.4743 4.53488C29.3526 3.84246 28.3061 4.027 28.4279 4.71902C29.0681 8.35603 25.4575 9.08437 25.1682 9.30411C25.1073 9.35011 25.057 9.4087 25.0209 9.47588C24.9847 9.54305 24.9634 9.61724 24.9585 9.69339C24.9535 9.76953 24.9651 9.84585 24.9923 9.91712C25.0196 9.9884 25.0619 10.053 25.1163 10.1064C25.2742 10.262 27.625 12.0147 27.625 14.3437C27.6392 21.4708 27.5902 21.2847 27.6661 21.6656C27.5685 21.8986 27.7874 23.6526 26.203 25.1089C25.9113 25.3771 26.0779 25.6821 26.0312 27.0937C26.0312 27.7962 27.0938 27.7971 27.0938 27.0937V25.7258C27.8339 24.981 28.3445 24.0392 28.5646 23.0125C28.9289 23.2551 29.3582 23.3815 29.7958 23.375C29.9821 26.8787 28.265 29.2187 24.4375 29.2187C20.036 29.2187 17.9326 23.4594 17.5685 22.3499C21.4808 20.3826 21.4201 20.4884 21.5584 20.3013L25.6004 14.8494C26.0188 14.2853 25.1658 13.6515 24.7468 14.2166L20.7808 19.5661L18.4271 20.7364L17.6615 18.8181C19.896 17.6186 19.8508 17.7025 19.9754 17.5402L23.3219 13.1707C23.7489 12.6132 22.9063 11.9662 22.4785 12.5247L19.2027 16.8021C16.5252 18.3377 15.5284 18.4263 14.7942 19.6562H6.90625C6.76535 19.6562 6.63023 19.7122 6.5306 19.8118C6.43097 19.9115 6.375 20.0466 6.375 20.1875V22.3125C6.375 22.4534 6.43097 22.5885 6.5306 22.6881C6.63023 22.7878 6.76535 22.8437 6.90625 22.8437H14.7527C15.2702 23.7638 15.5859 23.316 16.6067 22.8281C17.8558 26.5221 20.5335 30.2812 24.4375 30.2812C28.9061 30.2812 31.0616 27.3919 30.8621 23.375H31.875C32.4384 23.3744 32.9785 23.1503 33.3769 22.7519C33.7753 22.3535 33.9994 21.8134 34 21.25V11.1562C34 11.0153 33.944 10.8802 33.8444 10.7806C33.7448 10.681 33.6096 10.625 33.4688 10.625ZM14.3836 21.7812H7.4375V20.7187H14.3957C14.332 21.0697 14.3279 21.4289 14.3836 21.7812ZM15.5899 22.1472C15.4024 21.7265 15.3573 21.2562 15.4615 20.8075C15.7176 19.7031 16.655 19.3669 16.7166 19.3175L17.4723 21.211L15.5899 22.1472ZM32.9375 21.25C32.9372 21.5317 32.8251 21.8017 32.6259 22.0009C32.4267 22.2001 32.1567 22.3122 31.875 22.3125H29.75C29.4683 22.3122 29.1983 22.2001 28.9991 22.0009C28.7999 21.8017 28.6878 21.5317 28.6875 21.25V15.9375H32.9375V21.25ZM32.9375 14.875H28.6875V11.6875H29.75V12.75C29.75 13.4524 30.8125 13.4533 30.8125 12.75V11.6875H32.9375V14.875Z" fill="#00A1E9"/>
<path d="M6.90631 9.56251C7.60868 9.56251 7.60968 8.50001 6.90631 8.50001C6.20393 8.50001 6.20293 9.56251 6.90631 9.56251Z" fill="#00A1E9"/>
<path d="M0 6.37502C0 7.0774 1.0625 7.07839 1.0625 6.37502C1.0625 5.67264 0 5.67165 0 6.37502Z" fill="#00A1E9"/>
<path d="M9.03131 5.84375C8.32893 5.84375 8.32793 6.90625 9.03131 6.90625C9.73469 6.90625 9.73469 5.84375 9.03131 5.84375Z" fill="#00A1E9"/>
<path d="M4.25 4.25002C4.25 4.9524 5.3125 4.9534 5.3125 4.25002C5.3125 3.54765 4.25 3.54665 4.25 4.25002Z" fill="#00A1E9"/>
<path d="M7.4378 7.43718C7.54275 7.4369 7.64527 7.40557 7.73245 7.34715C7.81963 7.28873 7.88758 7.20582 7.92775 7.10886C7.96791 7.01191 7.97849 6.90523 7.95815 6.80227C7.93781 6.69932 7.88747 6.60467 7.81346 6.53027L6.99667 5.71347C7.1848 5.43049 7.31655 5.11385 7.38468 4.78093H9.03155C9.734 4.78093 9.73486 3.71843 9.03155 3.71843H7.38468C7.31662 3.38555 7.18497 3.06894 6.99693 2.78595L8.34498 1.4379C8.8415 0.941252 8.09117 0.189466 7.59366 0.686584L6.24561 2.03463C5.96253 1.84656 5.64579 1.7149 5.3128 1.64688V0.530927C5.3128 -0.171518 4.2503 -0.172381 4.2503 0.530927V1.64688C3.93542 1.71143 3.63498 1.83296 3.36378 2.00548L2.01905 0.212177C1.59684 -0.350549 0.747638 0.287748 1.16905 0.849677L2.5924 2.7475C2.39063 3.04003 2.24995 3.37026 2.17876 3.71843H0.531552C-0.170893 3.71843 -0.171756 4.78093 0.531552 4.78093H2.17876C2.27267 5.2392 2.48623 5.66444 2.79773 6.01343L1.74964 7.06152C1.2516 7.55956 2.00936 8.30411 2.50096 7.81284L3.65803 6.65584C3.84695 6.74473 4.04577 6.81085 4.2503 6.8528V9.03093C4.2503 9.73337 5.3128 9.73424 5.3128 9.03093V6.8528C5.64568 6.78475 5.96229 6.65309 6.24528 6.46506C6.99706 7.15668 7.07257 7.43718 7.4378 7.43718ZM4.78155 5.84343C4.46634 5.84343 4.1582 5.74996 3.89611 5.57483C3.63402 5.39971 3.42975 5.1508 3.30912 4.85958C3.18849 4.56836 3.15693 4.24791 3.21843 3.93875C3.27992 3.62959 3.43171 3.34562 3.6546 3.12273C3.87749 2.89984 4.16147 2.74805 4.47063 2.68655C4.77978 2.62506 5.10023 2.65662 5.39145 2.77724C5.68267 2.89787 5.93158 3.10215 6.10671 3.36424C6.28183 3.62633 6.3753 3.93446 6.3753 4.24968C6.37481 4.67222 6.20674 5.07731 5.90796 5.37609C5.60918 5.67487 5.20409 5.84294 4.78155 5.84343Z" fill="#00A1E9"/>
<path d="M14.3438 7.4375C15.0462 7.4375 15.0472 6.375 14.3438 6.375C13.6414 6.375 13.6404 7.4375 14.3438 7.4375Z" fill="#00A1E9"/>
<path d="M8.50006 15.4063C9.20243 15.4063 9.20343 14.3438 8.50006 14.3438C7.79768 14.3438 7.79668 15.4063 8.50006 15.4063Z" fill="#00A1E9"/>
<path d="M16.9999 15.4063C17.7023 15.4063 17.7033 14.3438 16.9999 14.3438C16.2966 14.3438 16.2966 15.4063 16.9999 15.4063Z" fill="#00A1E9"/>
<path d="M13.2812 12.75C13.2812 12.0476 12.2188 12.0466 12.2188 12.75C12.2188 13.4524 13.2812 13.4534 13.2812 12.75Z" fill="#00A1E9"/>
<path d="M28.6875 2.65627C28.6875 1.95389 27.625 1.9529 27.625 2.65627C27.625 3.35865 28.6875 3.35965 28.6875 2.65627Z" fill="#00A1E9"/>
<path d="M9.13756 9.35002L10.5609 11.2478C10.3591 11.5404 10.2185 11.8706 10.1473 12.2188H8.50006C7.79761 12.2188 7.79675 13.2813 8.50006 13.2813H10.1473C10.2412 13.7395 10.4547 14.1648 10.7662 14.5138L9.71815 15.5619C9.64414 15.6363 9.59379 15.7309 9.57346 15.8339C9.55312 15.9368 9.5637 16.0435 9.60386 16.1405C9.64403 16.2374 9.71198 16.3203 9.79916 16.3787C9.88634 16.4372 9.98886 16.4685 10.0938 16.4688C10.4727 16.4688 10.5547 16.1633 11.6265 15.1562C11.8155 15.2451 12.0143 15.3112 12.2188 15.3531V17.5313C12.2188 18.2337 13.2813 18.2346 13.2813 17.5313V15.3531C13.6142 15.2851 13.9308 15.1534 14.2138 14.9654C14.9656 15.657 15.0411 15.9375 15.4063 15.9375C15.5112 15.9372 15.6138 15.9059 15.701 15.8475C15.7881 15.7891 15.8561 15.7062 15.8962 15.6092C15.9364 15.5122 15.947 15.4056 15.9267 15.3026C15.9063 15.1997 15.856 15.105 15.782 15.0306L14.9652 14.2138C15.1533 13.9308 15.285 13.6142 15.3532 13.2813H17.0001C17.7025 13.2813 17.7034 12.2188 17.0001 12.2188H15.3532C15.2851 11.8859 15.1535 11.5693 14.9654 11.2863L16.3135 9.93824C16.81 9.44159 16.0597 8.68981 15.5622 9.18692L14.2141 10.535C13.931 10.3469 13.6143 10.2152 13.2813 10.1472V9.03127C13.2813 8.32882 12.2188 8.32796 12.2188 9.03127V10.1472C11.9039 10.2117 11.6035 10.3331 11.3323 10.5055L9.98756 8.71252C9.90302 8.5998 9.77717 8.52528 9.63769 8.50536C9.49821 8.48543 9.35652 8.52173 9.24381 8.60627C9.13109 8.69081 9.05657 8.81666 9.03665 8.95614C9.01672 9.09562 9.05302 9.2373 9.13756 9.35002ZM12.7501 11.1563C13.0653 11.1563 13.3734 11.2497 13.6355 11.4249C13.8976 11.6 14.1019 11.8489 14.2225 12.1401C14.3431 12.4313 14.3747 12.7518 14.3132 13.0609C14.2517 13.3701 14.0999 13.6541 13.877 13.877C13.6541 14.0999 13.3701 14.2517 13.061 14.3131C12.7518 14.3746 12.4314 14.3431 12.1402 14.2225C11.8489 14.1018 11.6 13.8975 11.4249 13.6355C11.2498 13.3734 11.1563 13.0652 11.1563 12.75C11.1568 12.3275 11.3249 11.9224 11.6236 11.6236C11.9224 11.3248 12.3275 11.1568 12.7501 11.1563Z" fill="#00A1E9"/>
<path d="M21.7812 21.25V26.5625C21.7812 27.265 22.8438 27.2658 22.8438 26.5625V21.25C22.8438 20.5476 21.7812 20.5467 21.7812 21.25Z" fill="#00A1E9"/>
<path d="M21.7812 31.3438V33.4688C21.7812 34.1712 22.8438 34.1721 22.8438 33.4688V31.3438C22.8438 30.6413 21.7812 30.6405 21.7812 31.3438Z" fill="#00A1E9"/>
<path d="M26.0312 31.3438V33.4688C26.0312 34.1712 27.0938 34.1721 27.0938 33.4688V31.3438C27.0938 30.6413 26.0312 30.6405 26.0312 31.3438Z" fill="#00A1E9"/>
</g>
<defs>
<clipPath id="clip0">
<rect width="34" height="34" fill="white"/>
</clipPath>
</defs>
</svg>
